<?xml version="1.0" standalone="no"?>
<!DOCTYPE svg PUBLIC "-//W3C//DTD SVG 20010904//EN"
 "http://www.w3.org/TR/2001/REC-SVG-20010904/DTD/svg10.dtd">
<svg version="1.0" xmlns="http://www.w3.org/2000/svg"
 width="920.000000pt" height="512.000000pt" viewBox="0 0 920.000000 512.000000"
 preserveAspectRatio="xMidYMid meet">

<g transform="translate(0.000000,512.000000) scale(0.100000,-0.100000)"
fill="#000000" stroke="none">
<path d="M2078 4193 c-40 -25 -46 -73 -14 -110 17 -20 30 -35 61 -78 35 -47
146 -187 182 -230 14 -16 53 -66 86 -110 34 -44 64 -82 67 -85 3 -3 28 -34 55
-70 27 -36 54 -69 61 -75 6 -5 29 -35 51 -65 23 -30 50 -66 62 -80 23 -28 22
-26 71 -90 19 -25 37 -47 41 -50 3 -3 36 -45 74 -95 37 -49 71 -92 74 -95 4
-3 29 -34 56 -70 27 -36 52 -67 56 -70 4 -3 28 -34 54 -70 27 -36 54 -72 62
-80 7 -8 35 -42 61 -75 134 -172 218 -279 227 -289 6 -6 33 -40 60 -76 27 -36
52 -67 55 -70 3 -3 30 -36 60 -75 63 -81 59 -77 106 -135 20 -25 43 -54 53
-65 9 -11 44 -57 78 -101 34 -45 68 -88 76 -95 7 -8 32 -39 54 -70 23 -31 48
-62 55 -70 7 -8 36 -43 62 -79 27 -36 54 -69 60 -75 6 -5 31 -37 55 -70 24
-33 50 -67 58 -75 26 -29 55 -65 86 -107 17 -24 34 -43 39 -43 4 0 8 -5 8 -11
0 -6 6 -16 13 -23 6 -7 23 -28 37 -47 58 -78 86 -102 119 -102 37 0 55 17 162
153 41 52 111 142 157 200 45 58 93 119 106 135 13 17 55 69 93 116 37 48 122
155 188 240 66 84 156 198 199 253 44 56 103 130 131 166 64 81 200 254 376
475 74 94 157 199 184 235 27 36 56 71 63 79 8 8 32 39 55 70 23 31 48 62 54
69 7 7 34 41 60 75 26 34 68 87 93 118 25 31 61 77 80 103 19 26 42 55 51 64
9 9 32 37 50 62 19 25 79 101 134 170 54 69 123 155 152 193 29 37 79 99 110
138 63 78 73 120 38 155 -18 18 -88 19 -2524 21 -2327 2 -2508 1 -2533 -14z"/>
</g>
</svg>
