<svg version="1.1" id="Layer_1" xmlns="http://www.w3.org/2000/svg" xmlns:xlink="http://www.w3.org/1999/xlink" x="0px" y="0px"
	 width="100%" viewBox="0 0 500 124" enable-background="new 0 0 500 124" xml:space="preserve">
<path fill="#010101" opacity="0.000000" stroke="none" 
	d="
M368.000000,125.000000 
	C245.333374,125.000000 123.166740,125.000000 1.000082,125.000000 
	C1.000055,83.666718 1.000055,42.333431 1.000027,1.000110 
	C167.666565,1.000073 334.333130,1.000073 500.999756,1.000037 
	C500.999847,42.333221 500.999847,83.666443 500.999939,124.999832 
	C456.833344,125.000000 412.666656,125.000000 368.000000,125.000000 
M439.177002,50.962975 
	C438.765778,50.968994 438.354584,50.975014 438.211853,50.279945 
	C435.140717,43.712029 431.355865,42.204960 426.522827,47.059017 
	C421.715302,51.887463 417.579834,57.729172 414.506805,63.812168 
	C412.646637,67.494370 412.556274,72.587509 413.124054,76.853287 
	C413.896332,82.655746 418.881012,84.348434 423.332062,80.588882 
	C426.819244,77.643524 429.668060,73.942413 432.706787,70.677727 
	C432.913269,83.383560 433.623138,84.291374 441.064606,81.251022 
	C437.443695,70.071716 444.033112,60.795216 447.014221,50.851292 
	C444.356934,49.342056 441.987183,46.993393 439.177002,50.962975 
M362.177002,50.962975 
	C361.765778,50.968994 361.354584,50.975014 361.211853,50.279945 
	C358.140717,43.712036 354.355865,42.204937 349.522827,47.058994 
	C344.715271,51.887436 340.579865,57.729187 337.506836,63.812187 
	C335.646637,67.494370 335.556244,72.587502 336.124023,76.853287 
	C336.896362,82.655746 341.880981,84.348427 346.332092,80.588890 
	C349.819244,77.643547 352.668091,73.942436 355.706787,70.677773 
	C355.913269,83.383560 356.623138,84.291374 364.064606,81.251022 
	C360.443695,70.071716 367.033112,60.795216 370.014221,50.851292 
	C367.356934,49.342056 364.987183,46.993393 362.177002,50.962975 
M296.177002,50.962975 
	C295.765778,50.968994 295.354584,50.975014 295.211853,50.279945 
	C292.140717,43.712040 288.355865,42.204945 283.522827,47.059002 
	C278.715271,51.887444 274.579865,57.729191 271.506805,63.812195 
	C269.646606,67.494370 269.556213,72.587509 270.124023,76.853287 
	C270.896393,82.655754 275.880981,84.348419 280.332092,80.588867 
	C283.819244,77.643509 286.668060,73.942413 289.706787,70.677734 
	C289.913269,83.383560 290.623138,84.291374 298.064606,81.251022 
	C294.443695,70.071716 301.033112,60.795216 304.014221,50.851292 
	C301.356934,49.342056 298.987183,46.993393 296.177002,50.962975 
M51.647259,32.604488 
	C41.821056,31.144844 34.420006,36.528316 34.581223,46.171078 
	C38.075691,43.271465 41.016602,40.831177 43.546661,38.731804 
	C47.428482,38.439220 51.526314,38.130356 56.393135,37.763531 
	C54.925209,39.332737 53.916943,40.184990 53.183411,41.230076 
	C46.766811,50.371986 42.976757,60.091736 48.368412,71.013901 
	C55.574314,85.611290 67.394020,94.031349 83.751205,94.765205 
	C100.092041,95.498322 112.746826,88.350128 121.078087,74.296455 
	C125.764053,66.391884 129.691177,58.037468 134.138962,49.544312 
	C135.458023,51.962963 136.692825,54.227146 137.927643,56.491325 
	C138.606720,56.352150 139.285797,56.212971 139.964890,56.073795 
	C136.316422,46.571049 137.532883,37.200359 140.794220,27.657785 
	C134.842636,27.707859 132.897659,30.927317 132.041061,34.472603 
	C131.038956,38.620117 128.563370,40.916542 125.053436,42.832752 
	C121.822441,44.596680 118.860466,46.853367 115.779984,48.892982 
	C116.016312,49.332893 116.252640,49.772804 116.488976,50.212719 
	C120.502068,49.109993 124.515160,48.007267 128.528259,46.904541 
	C128.989639,47.394146 129.451019,47.883755 129.912384,48.373360 
	C127.095894,52.606243 124.279404,56.839123 121.539337,60.957138 
	C122.380249,61.009453 123.655899,61.088818 125.516190,61.204556 
	C123.759827,63.627941 122.462967,65.417320 121.205956,67.151718 
	C116.733353,62.745266 111.754250,59.355118 108.915955,54.668472 
	C105.180870,48.501060 99.913239,48.150894 94.063835,47.913418 
	C93.893532,47.906502 93.734398,47.624207 93.475754,47.382000 
	C96.745514,46.788723 99.912148,46.214157 103.131386,45.630047 
	C99.140884,35.033009 88.347481,31.520222 76.268112,35.996529 
	C72.425385,34.381779 69.175476,33.016140 66.168808,31.752710 
	C67.673317,30.482805 69.413261,29.014181 70.331604,28.239044 
	C73.910149,27.887896 76.867111,27.597740 79.824074,27.307587 
	C79.891724,26.753216 79.959366,26.198845 80.027016,25.644476 
	C77.430786,24.816189 74.451736,22.755451 72.318596,23.418039 
	C67.974998,24.767233 64.087677,27.585365 59.944294,29.835197 
	C56.924095,24.603500 52.772163,19.822210 45.015377,20.824039 
	C39.804813,21.497009 36.169273,24.293827 33.173912,29.408413 
	C39.165150,28.690905 44.763153,29.889391 47.307232,24.640852 
	C49.425282,27.352629 51.228683,29.661560 52.734833,32.260086 
	C52.734833,32.260086 52.471230,32.580616 51.647259,32.604488 
M201.928436,67.364967 
	C200.516266,70.704849 199.104111,74.044731 197.691956,77.384613 
	C197.081390,77.252190 196.470810,77.119766 195.860245,76.987343 
	C197.610779,60.051926 199.361313,43.116508 201.186691,25.457069 
	C198.383163,24.417942 194.586548,23.010725 190.685547,21.564814 
	C184.254135,41.503658 177.728333,60.641384 167.817169,78.460930 
	C166.744293,60.885590 167.887161,43.641602 172.752365,26.114912 
	C168.861130,24.617605 164.982208,23.125046 160.705017,21.479229 
	C160.221436,27.193497 159.662430,31.980280 159.438721,36.782681 
	C158.758514,51.385387 158.193634,65.993561 157.614731,80.600838 
	C157.423569,85.424431 161.239029,86.052895 164.588791,86.850838 
	C167.877518,87.634224 170.396301,86.516602 171.812897,83.157463 
	C174.841431,75.975883 178.095535,68.888756 181.079819,61.689404 
	C183.325089,56.272892 185.294113,50.741879 187.386124,45.261841 
	C187.973465,48.621120 187.632690,51.753407 187.559799,54.891914 
	C187.362732,63.373642 187.240463,71.857666 187.166321,80.341461 
	C187.123276,85.267776 190.951752,86.116913 194.566193,86.891251 
	C197.996185,87.626076 199.817978,86.146835 201.235062,82.710571 
	C209.327896,63.086426 217.826004,43.639500 231.382812,26.303015 
	C228.976318,25.024073 226.743286,23.837322 223.323090,22.019644 
	C216.054855,37.326897 209.097839,51.978741 201.928436,67.364967 
M403.943329,47.423946 
	C397.158051,57.773376 393.631744,70.464531 381.624756,78.783463 
	C383.036865,65.427231 388.768341,55.283051 395.558716,44.934196 
	C392.317047,44.236416 389.609161,41.112625 386.651001,44.404526 
	C378.867859,53.065800 374.291046,63.341824 373.358459,74.892136 
	C373.187927,77.004128 376.015259,80.201569 378.258118,81.392578 
	C379.987244,82.310799 383.574890,81.640068 385.263794,80.312057 
	C388.449036,77.807381 390.861725,74.320137 394.616028,70.092033 
	C391.740021,80.633713 388.075439,89.217834 381.776062,96.400490 
	C375.861481,103.144409 369.111084,108.201988 359.049774,103.690567 
	C360.211548,105.432739 361.482605,107.047951 363.144897,107.899300 
	C370.076324,111.449280 377.255371,110.986809 382.613983,105.644501 
	C388.287445,99.988281 393.879822,93.602760 397.298615,86.476067 
	C403.288635,73.989464 407.591766,60.693623 413.176239,46.250675 
	C409.748383,46.448990 407.006042,46.607647 403.943329,47.423946 
M257.188049,41.453865 
	C247.004364,48.409325 251.902863,57.986240 253.276093,66.987175 
	C251.574173,67.407494 250.298569,67.656532 249.064209,68.038788 
	C243.708801,69.697281 239.400818,72.824471 237.656342,78.232933 
	C236.942490,80.446068 236.960129,84.091797 238.304153,85.483795 
	C240.189514,87.436424 243.667892,88.901962 246.385284,88.781448 
	C252.049652,88.530228 256.358307,83.745483 257.687073,77.773926 
	C257.687073,77.773926 263.300140,67.228302 263.408997,67.023811 
	C261.592346,66.898422 259.871521,66.779648 257.195221,66.594925 
	C258.223511,61.805618 258.840820,57.395134 260.248810,53.253437 
	C260.706390,51.907364 263.230988,51.263958 264.810150,50.299164 
	C265.120483,51.923779 265.530762,53.538055 265.700256,55.177246 
	C265.788879,56.033978 265.454041,56.934494 265.263794,58.101521 
	C269.312134,55.858685 271.308746,50.938831 269.819885,47.655899 
	C267.539795,42.628319 261.840027,39.495647 257.188049,41.453865 
M321.862640,63.495781 
	C322.277130,62.236515 322.679596,60.973137 323.108093,59.718674 
	C325.131165,53.796276 327.397491,48.173969 335.332672,48.808128 
	C335.867249,48.850849 336.475861,47.966717 338.196167,46.609295 
	C334.767334,46.302574 332.613556,46.109909 329.941132,45.870853 
	C332.456421,41.975685 334.842560,38.280483 337.235626,34.574577 
	C329.652588,30.638342 328.759613,30.817860 324.310944,37.704109 
	C321.393066,42.220791 319.906067,48.632278 311.411987,45.148880 
	C311.404846,45.830761 311.397705,46.512638 311.390564,47.194519 
	C313.087555,48.562939 314.784515,49.931355 316.956238,51.682602 
	C316.651581,52.524242 315.910004,54.175694 315.454468,55.902592 
	C313.808502,62.142162 311.932007,68.348015 310.786133,74.682999 
	C310.006073,78.995369 313.748474,82.717178 319.197479,84.160896 
	C322.937408,85.151794 325.827850,83.762253 327.779022,79.792648 
	C326.794739,79.933945 325.990295,79.979897 325.221893,80.170952 
	C319.964996,81.478035 318.481384,80.345161 319.184998,74.909058 
	C319.650635,71.311150 320.754150,67.795792 321.862640,63.495781 
M229.778534,52.298450 
	C227.837479,59.642956 225.617554,66.929214 224.066727,74.355217 
	C223.223190,78.394409 225.453979,81.190544 228.642654,81.924660 
	C232.680206,71.753731 236.563095,61.972424 240.610580,51.776474 
	C236.089859,46.593594 234.269928,46.447437 229.778534,52.298450 
M244.398605,27.097685 
	C243.215576,27.028618 241.552719,26.424059 240.930893,26.981277 
	C237.908066,29.689995 238.232620,39.625885 241.360168,42.896935 
	C244.402908,39.112381 247.426025,35.352234 250.670624,31.316601 
	C248.542862,29.852320 246.796951,28.650826 244.398605,27.097685 
z"/>
<path fill="#F7F7F7" opacity="1.000000" stroke="none" 
	d="
M53.032089,31.970493 
	C51.228683,29.661560 49.425282,27.352629 47.307232,24.640852 
	C44.763153,29.889391 39.165150,28.690905 33.173912,29.408413 
	C36.169273,24.293827 39.804813,21.497009 45.015377,20.824039 
	C52.772163,19.822210 56.924095,24.603500 59.944294,29.835197 
	C64.087677,27.585365 67.974998,24.767233 72.318596,23.418039 
	C74.451736,22.755451 77.430786,24.816189 80.027016,25.644476 
	C79.959366,26.198845 79.891724,26.753216 79.824074,27.307587 
	C76.867111,27.597740 73.910149,27.887896 70.331604,28.239044 
	C69.413261,29.014181 67.673317,30.482805 66.168808,31.752710 
	C69.175476,33.016140 72.425385,34.381779 76.268112,35.996529 
	C88.347481,31.520222 99.140884,35.033009 103.131386,45.630047 
	C99.912148,46.214157 96.745514,46.788723 93.475754,47.382000 
	C93.734398,47.624207 93.893532,47.906502 94.063835,47.913418 
	C99.913239,48.150894 105.180870,48.501060 108.915955,54.668472 
	C111.754250,59.355118 116.733353,62.745266 121.205956,67.151718 
	C122.462967,65.417320 123.759827,63.627941 125.516190,61.204556 
	C123.655899,61.088818 122.380249,61.009453 121.539337,60.957138 
	C124.279404,56.839123 127.095894,52.606243 129.912384,48.373360 
	C129.451019,47.883755 128.989639,47.394146 128.528259,46.904541 
	C124.515160,48.007267 120.502068,49.109993 116.488976,50.212719 
	C116.252640,49.772804 116.016312,49.332893 115.779984,48.892982 
	C118.860466,46.853367 121.822441,44.596680 125.053436,42.832752 
	C128.563370,40.916542 131.038956,38.620117 132.041061,34.472603 
	C132.897659,30.927317 134.842636,27.707859 140.794220,27.657785 
	C137.532883,37.200359 136.316422,46.571049 139.964890,56.073795 
	C139.285797,56.212971 138.606720,56.352150 137.927643,56.491325 
	C136.692825,54.227146 135.458023,51.962963 134.138962,49.544312 
	C129.691177,58.037468 125.764053,66.391884 121.078087,74.296455 
	C112.746826,88.350128 100.092041,95.498322 83.751205,94.765205 
	C67.394020,94.031349 55.574314,85.611290 48.368412,71.013901 
	C42.976757,60.091736 46.766811,50.371986 53.183411,41.230076 
	C53.916943,40.184990 54.925209,39.332737 56.393135,37.763531 
	C51.526314,38.130356 47.428482,38.439220 43.546661,38.731804 
	C41.016602,40.831177 38.075691,43.271465 34.581223,46.171078 
	C34.420006,36.528316 41.821056,31.144844 52.273472,32.695820 
	C53.176903,32.678654 53.454121,32.570156 53.731339,32.461658 
	C53.498257,32.297935 53.265171,32.134212 53.032089,31.970493 
M87.359749,65.083160 
	C87.221626,64.868935 87.041916,64.698586 86.499077,63.945335 
	C81.752708,58.553883 77.006348,53.162430 72.689476,48.258846 
	C69.612442,49.355507 67.305389,50.177742 64.853973,50.276646 
	C67.236282,47.001354 69.618584,43.726059 72.336487,39.989380 
	C71.927124,39.467915 70.763840,37.986076 70.239685,37.318378 
	C55.501152,37.850822 53.420456,48.533684 50.490776,59.764965 
	C55.912411,56.481361 60.477116,53.716759 65.662346,51.510288 
	C63.578888,53.232555 61.495434,54.954819 58.619392,57.332268 
	C61.867516,56.661358 64.256783,56.167850 66.712151,55.660690 
	C67.395500,58.403381 68.051796,61.037498 68.937141,64.590897 
	C70.693100,61.021461 72.008575,58.347427 73.390694,55.537930 
	C77.757668,58.975212 81.749565,62.117264 85.925636,65.747734 
	C86.235016,65.880585 86.544403,66.013435 87.097214,66.734703 
	C87.457321,66.654640 87.817421,66.574577 88.177528,66.494507 
	C87.954933,66.138329 87.732330,65.782150 87.359749,65.083160 
M108.935570,78.584625 
	C108.443214,79.049881 107.950867,79.515144 106.866585,79.963554 
	C106.232590,80.567818 105.598595,81.172081 104.214073,81.902092 
	C93.833366,86.847954 83.021095,89.234520 71.375702,87.438972 
	C72.674889,88.366844 73.995407,88.909195 75.369041,89.204262 
	C86.460052,91.586723 96.363853,88.067085 106.469421,82.998016 
	C106.646278,82.998680 106.823143,82.999336 106.986763,83.721977 
	C107.502937,84.355789 108.019119,84.989601 108.535301,85.623413 
	C109.067932,84.370773 109.600563,83.118134 110.711090,82.083527 
	C111.147758,81.986488 111.584435,81.889450 112.021103,81.792412 
	C111.826263,81.424232 111.631424,81.056053 111.436584,80.687874 
	C111.031059,81.101913 110.625542,81.515953 109.550644,82.078484 
	C108.700432,82.385658 107.850212,82.692833 107.209229,82.519569 
	C107.463860,82.070930 107.718498,81.622292 108.516373,80.895882 
	C109.070107,80.321579 109.623840,79.747276 110.817871,78.928749 
	C110.807549,78.538414 110.797234,78.148087 110.786911,77.757759 
	C110.370422,77.917976 109.953934,78.078194 108.935570,78.584625 
M103.133469,60.314861 
	C104.521027,63.731728 105.908585,67.148590 107.432899,70.902237 
	C108.298080,68.958443 108.944824,67.505402 109.796455,65.592049 
	C111.461220,67.710724 112.849380,69.477379 114.445389,71.508553 
	C115.474663,69.926178 116.336838,68.600685 117.403603,66.960678 
	C113.441391,63.205593 109.617165,59.581280 105.553055,55.729633 
	C104.237343,57.238396 103.071823,58.574924 101.300880,60.096008 
	C101.336311,60.459106 101.371742,60.822208 101.407173,61.185307 
	C101.769745,60.983574 102.132309,60.781837 103.133469,60.314861 
M98.360558,54.115421 
	C94.104057,54.544136 89.847549,54.972851 85.005669,55.460526 
	C100.254189,57.795067 100.254189,57.795067 102.248856,54.114590 
	C101.189011,54.114590 100.197136,54.114590 98.360558,54.115421 
M113.669807,78.095520 
	C113.555161,78.610924 113.440514,79.126320 113.325859,79.641724 
	C113.757515,79.625404 114.189171,79.609093 114.620834,79.592773 
	C114.560143,79.062210 114.499458,78.531647 113.669807,78.095520 
z"/>
<path fill="#F7F7F7" opacity="1.000000" stroke="none" 
	d="
M202.034637,66.997772 
	C209.097839,51.978741 216.054855,37.326897 223.323090,22.019644 
	C226.743286,23.837322 228.976318,25.024073 231.382812,26.303015 
	C217.826004,43.639500 209.327896,63.086426 201.235062,82.710571 
	C199.817978,86.146835 197.996185,87.626076 194.566193,86.891251 
	C190.951752,86.116913 187.123276,85.267776 187.166321,80.341461 
	C187.240463,71.857666 187.362732,63.373642 187.559799,54.891914 
	C187.632690,51.753407 187.973465,48.621120 187.386124,45.261841 
	C185.294113,50.741879 183.325089,56.272892 181.079819,61.689404 
	C178.095535,68.888756 174.841431,75.975883 171.812897,83.157463 
	C170.396301,86.516602 167.877518,87.634224 164.588791,86.850838 
	C161.239029,86.052895 157.423569,85.424431 157.614731,80.600838 
	C158.193634,65.993561 158.758514,51.385387 159.438721,36.782681 
	C159.662430,31.980280 160.221436,27.193497 160.705017,21.479229 
	C164.982208,23.125046 168.861130,24.617605 172.752365,26.114912 
	C167.887161,43.641602 166.744293,60.885590 167.817169,78.460930 
	C177.728333,60.641384 184.254135,41.503658 190.685547,21.564814 
	C194.586548,23.010725 198.383163,24.417942 201.186691,25.457069 
	C199.361313,43.116508 197.610779,60.051926 195.860245,76.987343 
	C196.470810,77.119766 197.081390,77.252190 197.691956,77.384613 
	C199.104111,74.044731 200.516266,70.704849 202.034637,66.997772 
z"/>
<path fill="#F6F6F6" opacity="1.000000" stroke="none" 
	d="
M404.103516,47.095123 
	C407.006042,46.607647 409.748383,46.448990 413.176239,46.250675 
	C407.591766,60.693623 403.288635,73.989464 397.298615,86.476067 
	C393.879822,93.602760 388.287445,99.988281 382.613983,105.644501 
	C377.255371,110.986809 370.076324,111.449280 363.144897,107.899300 
	C361.482605,107.047951 360.211548,105.432739 359.049774,103.690567 
	C369.111084,108.201988 375.861481,103.144409 381.776062,96.400490 
	C388.075439,89.217834 391.740021,80.633713 394.616028,70.092033 
	C390.861725,74.320137 388.449036,77.807381 385.263794,80.312057 
	C383.574890,81.640068 379.987244,82.310799 378.258118,81.392578 
	C376.015259,80.201569 373.187927,77.004128 373.358459,74.892136 
	C374.291046,63.341824 378.867859,53.065800 386.651001,44.404526 
	C389.609161,41.112625 392.317047,44.236416 395.558716,44.934196 
	C388.768341,55.283051 383.036865,65.427231 381.624756,78.783463 
	C393.631744,70.464531 397.158051,57.773376 404.103516,47.095123 
z"/>
<path fill="#F5F5F5" opacity="1.000000" stroke="none" 
	d="
M296.793518,50.989994 
	C298.987183,46.993393 301.356934,49.342056 304.014221,50.851292 
	C301.033112,60.795216 294.443695,70.071716 298.064606,81.251022 
	C290.623138,84.291374 289.913269,83.383560 289.706787,70.677734 
	C286.668060,73.942413 283.819244,77.643509 280.332092,80.588867 
	C275.880981,84.348419 270.896393,82.655754 270.124023,76.853287 
	C269.556213,72.587509 269.646606,67.494370 271.506805,63.812195 
	C274.579865,57.729191 278.715271,51.887444 283.522827,47.059002 
	C288.355865,42.204945 292.140717,43.712040 294.718811,50.629795 
	C283.421631,55.626804 274.936371,69.238983 277.814789,78.354065 
	C287.438080,71.248009 291.685852,60.809475 296.793518,50.989994 
z"/>
<path fill="#F5F5F5" opacity="1.000000" stroke="none" 
	d="
M362.793518,50.989994 
	C364.987183,46.993393 367.356934,49.342056 370.014221,50.851292 
	C367.033112,60.795216 360.443695,70.071716 364.064606,81.251022 
	C356.623138,84.291374 355.913269,83.383560 355.706787,70.677773 
	C352.668091,73.942436 349.819244,77.643547 346.332092,80.588890 
	C341.880981,84.348427 336.896362,82.655746 336.124023,76.853287 
	C335.556244,72.587502 335.646637,67.494370 337.506836,63.812187 
	C340.579865,57.729187 344.715271,51.887436 349.522827,47.058994 
	C354.355865,42.204937 358.140717,43.712036 360.718811,50.629795 
	C349.421631,55.626804 340.936371,69.238991 343.814789,78.354065 
	C353.438080,71.248009 357.685852,60.809475 362.793518,50.989994 
z"/>
<path fill="#F5F5F5" opacity="1.000000" stroke="none" 
	d="
M439.793518,50.989994 
	C441.987183,46.993393 444.356934,49.342056 447.014221,50.851292 
	C444.033112,60.795216 437.443695,70.071716 441.064606,81.251022 
	C433.623138,84.291374 432.913269,83.383560 432.706787,70.677727 
	C429.668060,73.942413 426.819244,77.643524 423.332062,80.588882 
	C418.881012,84.348434 413.896332,82.655746 413.124054,76.853287 
	C412.556274,72.587509 412.646637,67.494370 414.506805,63.812168 
	C417.579834,57.729172 421.715302,51.887463 426.522827,47.059017 
	C431.355865,42.204960 435.140717,43.712029 437.718811,50.629795 
	C426.421631,55.626793 417.936371,69.238991 420.814789,78.354065 
	C430.438080,71.248009 434.685852,60.809475 439.793518,50.989994 
z"/>
<path fill="#F6F6F6" opacity="1.000000" stroke="none" 
	d="
M257.509369,41.260170 
	C261.840027,39.495647 267.539795,42.628319 269.819885,47.655899 
	C271.308746,50.938831 269.312134,55.858685 265.263794,58.101521 
	C265.454041,56.934494 265.788879,56.033978 265.700256,55.177246 
	C265.530762,53.538055 265.120483,51.923779 264.810150,50.299164 
	C263.230988,51.263958 260.706390,51.907364 260.248810,53.253437 
	C258.840820,57.395134 258.223511,61.805618 257.195221,66.594925 
	C259.871521,66.779648 261.592346,66.898422 263.408997,67.023811 
	C263.300140,67.228302 257.687073,77.773926 257.687073,77.773926 
	C256.358307,83.745483 252.049652,88.530228 246.385284,88.781448 
	C243.667892,88.901962 240.189514,87.436424 238.304153,85.483795 
	C236.960129,84.091797 236.942490,80.446068 237.656342,78.232933 
	C239.400818,72.824471 243.708801,69.697281 249.064209,68.038788 
	C250.298569,67.656532 251.574173,67.407494 253.276093,66.987175 
	C251.902863,57.986240 247.004364,48.409325 257.509369,41.260170 
M243.143555,84.762329 
	C248.627716,84.448975 253.298538,78.157227 252.518555,71.494843 
	C247.750977,74.786858 242.505081,77.191597 243.143555,84.762329 
z"/>
<path fill="#F6F6F6" opacity="1.000000" stroke="none" 
	d="
M321.717377,63.869629 
	C320.754150,67.795792 319.650635,71.311150 319.184998,74.909058 
	C318.481384,80.345161 319.964996,81.478035 325.221893,80.170952 
	C325.990295,79.979897 326.794739,79.933945 327.779022,79.792648 
	C325.827850,83.762253 322.937408,85.151794 319.197479,84.160896 
	C313.748474,82.717178 310.006073,78.995369 310.786133,74.682999 
	C311.932007,68.348015 313.808502,62.142162 315.454468,55.902592 
	C315.910004,54.175694 316.651581,52.524242 316.956238,51.682602 
	C314.784515,49.931355 313.087555,48.562939 311.390564,47.194519 
	C311.397705,46.512638 311.404846,45.830761 311.411987,45.148880 
	C319.906067,48.632278 321.393066,42.220791 324.310944,37.704109 
	C328.759613,30.817860 329.652588,30.638342 337.235626,34.574577 
	C334.842560,38.280483 332.456421,41.975685 329.941132,45.870853 
	C332.613556,46.109909 334.767334,46.302574 338.196167,46.609295 
	C336.475861,47.966717 335.867249,48.850849 335.332672,48.808128 
	C327.397491,48.173969 325.131165,53.796276 323.108093,59.718674 
	C322.679596,60.973137 322.277130,62.236515 321.717377,63.869629 
z"/>
<path fill="#F7F7F7" opacity="1.000000" stroke="none" 
	d="
M229.945755,51.958015 
	C234.269928,46.447437 236.089859,46.593594 240.610580,51.776474 
	C236.563095,61.972424 232.680206,71.753731 228.642654,81.924660 
	C225.453979,81.190544 223.223190,78.394409 224.066727,74.355217 
	C225.617554,66.929214 227.837479,59.642956 229.945755,51.958015 
z"/>
<path fill="#0A0A0A" opacity="0.000000" stroke="none" 
	d="
M439.485260,50.976486 
	C434.685852,60.809475 430.438080,71.248009 420.814789,78.354065 
	C417.936371,69.238991 426.421631,55.626793 437.584595,50.980339 
	C438.354584,50.975014 438.765778,50.968994 439.485260,50.976486 
z"/>
<path fill="#0A0A0A" opacity="0.000000" stroke="none" 
	d="
M362.485260,50.976486 
	C357.685852,60.809475 353.438080,71.248009 343.814789,78.354065 
	C340.936371,69.238991 349.421631,55.626804 360.584595,50.980339 
	C361.354584,50.975014 361.765778,50.968994 362.485260,50.976486 
z"/>
<path fill="#0A0A0A" opacity="0.000000" stroke="none" 
	d="
M296.485260,50.976486 
	C291.685852,60.809475 287.438080,71.248009 277.814789,78.354065 
	C274.936371,69.238983 283.421631,55.626804 294.584595,50.980339 
	C295.354584,50.975014 295.765778,50.968994 296.485260,50.976486 
z"/>
<path fill="#F2F2F2" opacity="1.000000" stroke="none" 
	d="
M244.724823,27.273508 
	C246.796951,28.650826 248.542862,29.852320 250.670624,31.316601 
	C247.426025,35.352234 244.402908,39.112381 241.360168,42.896935 
	C238.232620,39.625885 237.908066,29.689995 240.930893,26.981277 
	C241.552719,26.424059 243.215576,27.028618 244.724823,27.273508 
z"/>
<path fill="#0E0E0E" opacity="0.000000" stroke="none" 
	d="
M65.041817,50.952148 
	C60.477116,53.716759 55.912411,56.481361 50.490776,59.764965 
	C53.420456,48.533684 55.501152,37.850822 70.239685,37.318378 
	C70.763840,37.986076 71.927124,39.467915 72.336487,39.989380 
	C69.618584,43.726059 67.236282,47.001354 64.949539,50.639629 
	C65.045105,51.002613 65.041817,50.952148 65.041817,50.952148 
z"/>
<path fill="#111111" opacity="0.000000" stroke="none" 
	d="
M65.021729,51.001297 
	C67.305389,50.177742 69.612442,49.355507 72.689476,48.258846 
	C77.006348,53.162430 81.752708,58.553883 86.379494,64.413940 
	C86.087090,65.008133 85.914268,65.133728 85.741455,65.259315 
	C81.749565,62.117264 77.757668,58.975212 73.390694,55.537930 
	C72.008575,58.347427 70.693100,61.021461 68.937141,64.590897 
	C68.051796,61.037498 67.395500,58.403381 66.712151,55.660690 
	C64.256783,56.167850 61.867516,56.661358 58.619392,57.332268 
	C61.495434,54.954819 63.578888,53.232555 65.352081,51.231216 
	C65.041817,50.952148 65.045105,51.002613 65.021729,51.001297 
z"/>
<path fill="#111111" opacity="0.000000" stroke="none" 
	d="
M101.906311,59.911453 
	C103.071823,58.574924 104.237343,57.238396 105.553055,55.729633 
	C109.617165,59.581280 113.441391,63.205593 117.403603,66.960678 
	C116.336838,68.600685 115.474663,69.926178 114.445389,71.508553 
	C112.849380,69.477379 111.461220,67.710724 109.796455,65.592049 
	C108.944824,67.505402 108.298080,68.958443 107.432899,70.902237 
	C105.908585,67.148590 104.521027,63.731728 102.671463,60.276421 
	C102.209450,60.237984 101.906303,59.911449 101.906311,59.911453 
z"/>
<path fill="#292929" opacity="0.000000" stroke="none" 
	d="
M105.939499,82.971428 
	C96.363853,88.067085 86.460052,91.586723 75.369041,89.204262 
	C73.995407,88.909195 72.674889,88.366844 71.375702,87.438972 
	C83.021095,89.234520 93.833366,86.847954 104.872070,81.936310 
	C105.666542,82.304161 105.803017,82.637794 105.939499,82.971428 
z"/>
<path fill="#1C1C1C" opacity="0.000000" stroke="none" 
	d="
M98.782906,54.115005 
	C100.197136,54.114590 101.189011,54.114590 102.248856,54.114590 
	C100.254189,57.795067 100.254189,57.795067 85.005669,55.460526 
	C89.847549,54.972851 94.104057,54.544136 98.782906,54.115005 
z"/>
<path fill="#F7F7F7" opacity="1.000000" stroke="none" 
	d="
M110.133194,81.865494 
	C109.600563,83.118134 109.067932,84.370773 108.535294,85.623413 
	C108.019119,84.989601 107.502937,84.355789 106.993378,83.360992 
	C107.850212,82.692833 108.700432,82.385658 109.832169,82.030457 
	C110.113693,81.982437 110.133186,81.865494 110.133194,81.865494 
z"/>
<path fill="#F7F7F7" opacity="1.000000" stroke="none" 
	d="
M106.204460,82.984726 
	C105.803017,82.637794 105.666542,82.304161 105.247330,81.873428 
	C105.598595,81.172081 106.232590,80.567818 107.329437,80.253845 
	C107.852570,80.753975 107.912842,80.963814 107.973129,81.173645 
	C107.718498,81.622292 107.463860,82.070930 107.104614,82.759781 
	C106.823143,82.999336 106.646278,82.998680 106.204460,82.984726 
z"/>
<path fill="#F7F7F7" opacity="1.000000" stroke="none" 
	d="
M114.054291,78.048302 
	C114.499458,78.531647 114.560143,79.062210 114.620834,79.592773 
	C114.189171,79.609093 113.757515,79.625404 113.325859,79.641724 
	C113.440514,79.126320 113.555161,78.610924 114.054291,78.048302 
z"/>
<path fill="#2C2C2C" opacity="0.000000" stroke="none" 
	d="
M108.244751,81.034760 
	C107.912842,80.963814 107.852570,80.753975 107.625412,80.262276 
	C107.950867,79.515144 108.443214,79.049881 109.385025,78.653053 
	C109.948845,78.871986 110.063210,79.022484 110.177574,79.172981 
	C109.623840,79.747276 109.070107,80.321579 108.244751,81.034760 
z"/>
<path fill="#F7F7F7" opacity="1.000000" stroke="none" 
	d="
M110.166855,81.956223 
	C110.625542,81.515953 111.031059,81.101913 111.436584,80.687874 
	C111.631424,81.056053 111.826263,81.424232 112.021103,81.792412 
	C111.584435,81.889450 111.147758,81.986488 110.422134,81.974510 
	C110.133186,81.865494 110.113693,81.982437 110.166855,81.956223 
z"/>
<path fill="#111111" opacity="0.000000" stroke="none" 
	d="
M87.509735,65.425972 
	C87.732330,65.782150 87.954933,66.138329 88.177528,66.494507 
	C87.817421,66.574577 87.457321,66.654640 87.142761,66.263397 
	C87.188301,65.792084 87.509735,65.425972 87.509735,65.425972 
z"/>
<path fill="#010101" opacity="0.000000" stroke="none" 
	d="
M52.883461,32.115288 
	C53.265171,32.134212 53.498257,32.297935 53.731339,32.461658 
	C53.454121,32.570156 53.176903,32.678654 52.685455,32.683884 
	C52.471230,32.580616 52.734833,32.260086 52.883461,32.115288 
z"/>
<path fill="#111111" opacity="0.000000" stroke="none" 
	d="
M86.540268,64.727325 
	C87.041916,64.698586 87.221626,64.868935 87.434738,65.254562 
	C87.509735,65.425972 87.188301,65.792084 87.021042,65.969193 
	C86.544403,66.013435 86.235016,65.880585 85.833542,65.503525 
	C85.914268,65.133728 86.087090,65.008133 86.540268,64.727325 
z"/>
<path fill="#2C2C2C" opacity="0.000000" stroke="none" 
	d="
M109.685959,78.479950 
	C109.953934,78.078194 110.370422,77.917976 110.786911,77.757751 
	C110.797234,78.148087 110.807549,78.538414 110.497726,79.050865 
	C110.063210,79.022484 109.948845,78.871986 109.685959,78.479950 
z"/>
<path fill="#111111" opacity="0.000000" stroke="none" 
	d="
M102.352165,60.409042 
	C102.132309,60.781837 101.769745,60.983574 101.407173,61.185307 
	C101.371742,60.822208 101.336311,60.459106 101.603592,60.003731 
	C101.906303,59.911449 102.209450,60.237984 102.352165,60.409042 
z"/>
<path fill="#0A0A0A" opacity="0.000000" stroke="none" 
	d="
M242.979156,84.430725 
	C242.505081,77.191597 247.750977,74.786858 252.518555,71.494843 
	C253.298538,78.157227 248.627716,84.448975 242.979156,84.430725 
z"/>
</svg>